<?xml version="1.0" encoding="iso-8859-1"?>
<!-- Generator: Adobe Illustrator 19.0.0, SVG Export Plug-In . SVG Version: 6.00 Build 0)  -->
<svg version="1.1" id="Layer_1" xmlns="http://www.w3.org/2000/svg" xmlns:xlink="http://www.w3.org/1999/xlink" x="0px" y="0px"
	 viewBox="0 0 512 512" style="enable-background:new 0 0 512 512;" xml:space="preserve">
<g>
	<g>
		<path d="M507.11,205.237c-3.109-3.109-7.41-4.89-11.806-4.89h-50.087v-11.132C445.217,84.716,360.501,0,256.001,0H256
			C151.497,0,66.783,84.716,66.783,189.216v11.132H16.696c-4.397,0-8.697,1.781-11.806,4.89C1.781,208.346,0,212.647,0,217.043
			v100.174c0,4.397,1.781,8.697,4.89,11.806c3.109,3.109,7.41,4.89,11.806,4.89h50.649C73.137,432.974,155.255,512,256,512h0.001
			c100.744,0,182.862-79.026,188.655-178.087h50.648c4.397,0,8.697-1.781,11.806-4.89c3.109-3.109,4.89-7.409,4.89-11.806V217.043
			C512,212.647,510.219,208.346,507.11,205.237z M66.783,300.522H33.391v-66.783h33.391V300.522z M306.087,77.913
			c9.22,0,16.696,7.475,16.696,16.696s-7.475,16.696-16.696,16.696s-16.696-7.475-16.696-16.696S296.867,77.913,306.087,77.913z
			 M205.913,77.913c9.22,0,16.696,7.475,16.696,16.696s-7.475,16.696-16.696,16.696c-9.22,0-16.696-7.475-16.696-16.696
			S196.693,77.913,205.913,77.913z M217.043,434.087c-9.22,0-16.696-7.475-16.696-16.696s7.475-16.696,16.696-16.696
			c9.22,0,16.696,7.475,16.696,16.696S226.264,434.087,217.043,434.087z M217.043,367.304c-9.22,0-16.696-7.475-16.696-16.696
			s7.475-16.696,16.696-16.696c9.22,0,16.696,7.475,16.696,16.696S226.264,367.304,217.043,367.304z M183.652,300.522
			c-27.619,0-50.087-22.468-50.087-50.087c0-27.619,22.468-50.087,50.087-50.087c27.619,0,50.087,22.468,50.087,50.087
			C233.739,278.055,211.271,300.522,183.652,300.522z M256,200.348c-2.848,0-5.695-1.087-7.869-3.261l-33.391-33.391
			c-3.184-3.184-4.142-7.967-2.413-12.13c1.717-4.163,5.782-6.87,10.282-6.87h66.783c4.5,0,8.565,2.707,10.282,6.87
			c1.729,4.163,0.771,8.946-2.413,12.13l-33.391,33.391C261.695,199.261,258.848,200.348,256,200.348z M294.957,434.087
			c-9.22,0-16.696-7.475-16.696-16.696s7.475-16.696,16.696-16.696s16.696,7.475,16.696,16.696S304.177,434.087,294.957,434.087z
			 M294.957,367.304c-9.22,0-16.696-7.475-16.696-16.696s7.475-16.696,16.696-16.696s16.696,7.475,16.696,16.696
			S304.177,367.304,294.957,367.304z M328.348,300.522c-27.62,0-50.087-22.468-50.087-50.087c0-27.619,22.467-50.087,50.087-50.087
			c27.619,0,50.087,22.468,50.087,50.087C378.435,278.055,355.967,300.522,328.348,300.522z M478.609,300.522h-33.391v-66.783
			h33.391V300.522z"/>
	</g>
</g>
<g>
</g>
<g>
</g>
<g>
</g>
<g>
</g>
<g>
</g>
<g>
</g>
<g>
</g>
<g>
</g>
<g>
</g>
<g>
</g>
<g>
</g>
<g>
</g>
<g>
</g>
<g>
</g>
<g>
</g>
</svg>
