<?xml version='1.0' encoding='iso-8859-1'?>
<svg version="1.1" xmlns="http://www.w3.org/2000/svg" viewBox="0 0 511 511" xmlns:xlink="http://www.w3.org/1999/xlink" enable-background="new 0 0 511 511">
  <g>
    <path d="m510.855,214.028l-8-40c-0.02-0.1-0.048-0.195-0.072-0.293-0.022-0.092-0.042-0.184-0.067-0.274-0.045-0.16-0.098-0.316-0.154-0.472-0.021-0.059-0.038-0.118-0.06-0.176-0.167-0.436-0.372-0.851-0.612-1.24-0.034-0.057-0.074-0.109-0.11-0.165-0.087-0.133-0.174-0.265-0.269-0.391-0.059-0.08-0.123-0.156-0.186-0.233-0.079-0.097-0.157-0.193-0.241-0.286-0.074-0.083-0.152-0.163-0.23-0.243-0.081-0.083-0.163-0.163-0.247-0.242-0.083-0.077-0.167-0.153-0.254-0.227-0.093-0.079-0.189-0.154-0.286-0.229-0.083-0.064-0.165-0.128-0.252-0.189-0.135-0.095-0.275-0.183-0.416-0.269-0.054-0.033-0.105-0.069-0.16-0.101-0.207-0.119-0.42-0.228-0.637-0.327-0.008-0.003-0.015-0.008-0.023-0.012l-155.719-70.072c-2.557-45.971-40.761-82.587-87.359-82.587s-84.802,36.617-87.359,82.587l-155.72,70.073c-0.008,0.003-0.015,0.008-0.023,0.012-0.218,0.099-0.431,0.208-0.637,0.327-0.055,0.031-0.106,0.067-0.16,0.101-0.141,0.086-0.281,0.174-0.416,0.269-0.086,0.061-0.169,0.125-0.252,0.189-0.097,0.074-0.193,0.149-0.286,0.229-0.087,0.074-0.171,0.15-0.254,0.227-0.084,0.079-0.166,0.159-0.247,0.242-0.078,0.08-0.156,0.16-0.23,0.243-0.083,0.093-0.162,0.189-0.241,0.286-0.063,0.078-0.127,0.154-0.186,0.233-0.095,0.126-0.182,0.258-0.269,0.391-0.036,0.056-0.075,0.108-0.11,0.165-0.24,0.39-0.445,0.805-0.612,1.24-0.022,0.058-0.039,0.118-0.06,0.176-0.055,0.155-0.108,0.312-0.154,0.472-0.026,0.09-0.045,0.182-0.067,0.274-0.024,0.098-0.052,0.193-0.072,0.293l-8,40c-0.44,2.203 0.13,4.488 1.554,6.226 1.425,1.738 3.553,2.745 5.8,2.745h95.978c0.01,0 0.02,0.001 0.03,0.001 0.011,0 0.022-0.001 0.033-0.001h101.679l-92.79,261.996c-1.383,3.904 0.662,8.19 4.566,9.573 0.828,0.293 1.673,0.433 2.504,0.433 3.088,0 5.98-1.921 7.07-4.998l94.564-267.004h10.643l-.479,16.27c-0.122,4.14 3.136,7.595 7.276,7.717 0.076,0.002 0.15,0.003 0.225,0.003 4.04,0 7.374-3.214 7.493-7.28l.491-16.71h17.435l.491,16.71c0.119,4.065 3.453,7.28 7.493,7.28 0.074,0 0.149-0.001 0.225-0.003 4.14-0.122 7.398-3.577 7.276-7.717l-.479-16.27h10.643l94.564,267.004c1.09,3.077 3.982,4.998 7.07,4.998 0.831,0 1.676-0.139 2.504-0.432 3.904-1.383 5.949-5.669 4.566-9.574l-92.79-261.996h101.679c0.011,0 0.022,0.001 0.033,0.001 0.01,0 0.02-0.001 0.03-0.001h95.977c2.247,0 4.375-1.007 5.8-2.745 1.425-1.738 1.995-4.023 1.555-6.227zm-247.855-6.029v-25h130.351l5,25h-135.351zm-150.351,0l5-25h130.351v25h-135.351zm64.461-97h14.381l-82.333,57h-58.715l126.667-57zm70.89,0v57h-112.49l82.333-57h30.157zm45.157,0l82.333,57h-112.49v-57h30.157zm108.686,57l-82.333-57h14.381l126.667,57h-58.715zm-146.343-137c37.444,3.55271e-15 68.347,28.534 72.113,65h-32.018c-0.002,0-0.004,0-0.005,0h-80.167c-0.008,0-0.016,0-0.024,0h-32.011c3.765-36.466 34.668-65 72.112-65zm-233.851,152h80.703l-5,25h-80.703l5-25zm392,25l-5-25h80.703l5,25h-80.703z"/>
    <path d="m255.5,62.999c11.508,0 22.514,4.923 30.194,13.508 1.481,1.655 3.532,2.499 5.592,2.499 1.78,0 3.567-0.63 4.999-1.911 3.087-2.762 3.35-7.503 0.588-10.59-10.522-11.761-25.603-18.506-41.373-18.506-4.142,0-7.5,3.358-7.5,7.5s3.358,7.5 7.5,7.5z"/>
    <path d="m236.075,331.948c-4.173-0.127-7.595,3.137-7.717,7.276l-.706,23.99c-0.122,4.14 3.136,7.595 7.276,7.717 0.076,0.002 0.15,0.003 0.225,0.003 4.04,0 7.373-3.214 7.493-7.28l.706-23.989c0.121-4.14-3.137-7.595-7.277-7.717z"/>
    <path d="m237.898,269.976c-4.167-0.117-7.596,3.136-7.717,7.276l-.706,23.989c-0.122,4.141 3.136,7.596 7.276,7.718 0.076,0.002 0.15,0.003 0.225,0.003 4.04,0 7.373-3.214 7.492-7.279l.706-23.99c0.122-4.141-3.136-7.596-7.276-7.717z"/>
    <path d="m232.43,455.895c-4.185-0.12-7.596,3.136-7.717,7.276l-.706,23.99c-0.122,4.14 3.136,7.595 7.276,7.717 0.076,0.002 0.15,0.003 0.225,0.003 4.04,0 7.373-3.214 7.492-7.28l.706-23.989c0.122-4.14-3.136-7.595-7.276-7.717z"/>
    <path d="m234.253,393.922c-4.179-0.124-7.596,3.136-7.717,7.276l-.706,23.989c-0.122,4.141 3.136,7.596 7.276,7.718 0.076,0.002 0.15,0.003 0.225,0.003 4.04,0 7.374-3.215 7.493-7.279l.706-23.99c0.12-4.14-3.137-7.595-7.277-7.717z"/>
    <path d="m274.024,308.962c0.075,0 0.15-0.001 0.225-0.003 4.14-0.122 7.398-3.577 7.276-7.718l-.706-23.989c-0.122-4.141-3.545-7.403-7.717-7.276-4.14,0.122-7.398,3.577-7.276,7.717l.706,23.99c0.119,4.065 3.452,7.279 7.492,7.279z"/>
    <path d="m278.57,455.895c-4.14,0.122-7.398,3.577-7.276,7.717l.706,23.99c0.119,4.065 3.453,7.28 7.492,7.28 0.075,0 0.15-0.001 0.225-0.003 4.14-0.122 7.398-3.577 7.276-7.717l-.706-23.99c-0.121-4.141-3.537-7.395-7.717-7.277z"/>
    <path d="m277.67,432.908c0.074,0 0.149-0.001 0.225-0.003 4.14-0.122 7.398-3.577 7.276-7.718l-.706-23.989c-0.122-4.14-3.537-7.395-7.717-7.276-4.14,0.122-7.398,3.577-7.276,7.717l.706,23.99c0.118,4.065 3.452,7.279 7.492,7.279z"/>
    <path d="m275.847,370.935c0.074,0 0.149-0.001 0.225-0.003 4.14-0.122 7.398-3.577 7.276-7.717l-.706-23.99c-0.122-4.14-3.554-7.392-7.717-7.276-4.14,0.122-7.398,3.577-7.276,7.718l.706,23.989c0.119,4.065 3.452,7.279 7.492,7.279z"/>
  </g>
</svg>
