<?xml version="1.0" encoding="iso-8859-1"?>
<!-- Generator: Adobe Illustrator 18.0.0, SVG Export Plug-In . SVG Version: 6.00 Build 0)  -->
<!DOCTYPE svg PUBLIC "-//W3C//DTD SVG 1.1//EN" "http://www.w3.org/Graphics/SVG/1.1/DTD/svg11.dtd">
<svg version="1.1" id="Capa_1" xmlns="http://www.w3.org/2000/svg" xmlns:xlink="http://www.w3.org/1999/xlink" x="0px" y="0px"
	 viewBox="0 0 57.248 57.248" style="enable-background:new 0 0 57.248 57.248;" xml:space="preserve">
<g>
	<path d="M54.278,5.663l-3.029-3.029L31.133,22.75L4.258,49.624c-0.023,0.006-0.045,0.012-0.069,0.018l0.01,0.041l-4.2,4.2
		l1.761,0.404c0.954,0.22,1.954,0.329,3.002,0.329c8.586,0,20.296-7.363,34.877-21.944l0.707-0.707l-4.217-4.217
		c1.966-0.425,5.074-1.395,8.021-3.58c0.229-0.192,5.629-4.762,8.667-9.866l0.065-0.131c0.051-0.112,0.549-1.087,2.504-0.702
		L55.8,13.55l0.347-0.238c0.099-0.067,0.963-0.695,1.087-2.032C57.384,9.665,56.39,7.774,54.278,5.663z M31.133,25.578l2.518,2.518
		l0.001,0l1.427,1.427c-13.362,12.759-18.8,16.493-26.9,19.008L31.133,25.578z M4.113,52.596l1.173-1.173
		c11.047-2.878,16.592-6.525,31.208-20.485l1.023,1.023C23.421,45.916,11.949,52.996,4.113,52.596z M55.169,11.413
		c-2.463-0.269-3.725,1.062-4.106,1.925c-2.87,4.787-8.146,9.253-8.151,9.26c-3.435,2.545-7.24,3.25-8.509,3.422l-1.855-1.855
		L51.249,5.462l1.615,1.615c2.135,2.136,2.409,3.395,2.383,3.955C55.239,11.19,55.207,11.316,55.169,11.413z"/>
	<circle cx="37.936" cy="22.111" r="1.5"/>
	<circle cx="49.936" cy="10.111" r="1.5"/>
</g>
<g>
</g>
<g>
</g>
<g>
</g>
<g>
</g>
<g>
</g>
<g>
</g>
<g>
</g>
<g>
</g>
<g>
</g>
<g>
</g>
<g>
</g>
<g>
</g>
<g>
</g>
<g>
</g>
<g>
</g>
</svg>
