<?xml version="1.0" encoding="iso-8859-1"?>
<!-- Generator: Adobe Illustrator 19.0.0, SVG Export Plug-In . SVG Version: 6.00 Build 0)  -->
<svg version="1.1" id="Layer_1" xmlns="http://www.w3.org/2000/svg" xmlns:xlink="http://www.w3.org/1999/xlink" x="0px" y="0px"
	 viewBox="0 0 512 512" style="enable-background:new 0 0 512 512;" xml:space="preserve">
<g>
	<g>
		<path d="M512,219.97c0-31.081-15.643-50.15-43.431-51.302c-12.703-0.527-24.534,1.718-47.249,8.748L390.064,43.689
			c-2.419-14.744-12.843-28.102-27.294-34.778c-14.507-6.716-31.398-5.055-45.147,3.225l-24.455,14.78
			c-22.851,13.819-51.469,13.819-74.337,0l-24.426-14.762c-13.738-8.297-30.664-9.961-45.192-3.235
			c-14.435,6.668-24.859,20.026-27.546,36.111L90.691,177.418c-22.702-7.028-34.546-9.276-47.251-8.749
			C15.649,169.82,0,188.889,0,219.97c0,48.511,33.171,90.537,85.387,119.165c0.512,33.717,9.788,63.985,26.597,90.54
			c65.344,103.434,222.698,103.434,288.051-0.016c16.8-26.542,26.076-56.81,26.587-90.529C478.833,310.503,512,268.479,512,219.97z
			 M163.483,53.399c0.601-3.333,1.844-4.926,3.64-5.755c1.006-0.466,3.085-0.261,5.219,1.028l24.421,14.759
			c36.44,22.021,82.061,22.021,118.479-0.003l24.422-14.76c2.138-1.287,4.206-1.491,5.198-1.032c1.811,0.837,3.055,2.43,3.388,4.422
			l32.376,138.675l-0.018,0.006l5.188,22.142l0.694,2.973l-26.369,12.552c-26.429,13.867-53.096,22.328-79.929,25.444
			c-29.821,3.459-59.848,0.298-89.983-9.483c-12.601-4.092-25.221-9.322-37.853-15.726l-13.579-6.466l-13.262-6.323l0.656-2.813
			L163.483,53.399z M363.973,406.856c-48.619,76.96-167.318,76.96-215.928,0.016c-9.257-14.625-15.446-30.637-18.273-48.23
			c37.403,12.95,80.551,20.219,126.228,20.219c45.681,0,88.833-7.271,126.237-20.222
			C379.411,376.232,373.223,392.242,363.973,406.856z M469.333,219.97c0,61.142-93.966,116.224-213.333,116.224
			S42.667,281.112,42.667,219.97c0-9.525-0.815-8.533,2.539-8.672c6.893-0.286,16.506,1.774,35.764,7.8
			c-0.029,0.15-0.041,0.3-0.067,0.45c-0.089,0.507-0.166,1.013-0.226,1.519c-0.031,0.262-0.055,0.522-0.078,0.784
			c-0.046,0.518-0.082,1.034-0.098,1.55c-0.008,0.245-0.008,0.489-0.01,0.734c-0.003,0.529,0.004,1.056,0.032,1.581
			c0.012,0.227,0.031,0.453,0.049,0.68c0.041,0.537,0.093,1.072,0.165,1.603c0.029,0.211,0.066,0.42,0.099,0.631
			c0.087,0.54,0.182,1.076,0.3,1.607c0.044,0.198,0.096,0.394,0.145,0.591c0.131,0.535,0.271,1.067,0.434,1.592
			c0.059,0.19,0.126,0.376,0.189,0.564c0.175,0.523,0.357,1.043,0.563,1.554c0.075,0.186,0.159,0.367,0.237,0.551
			c0.215,0.503,0.437,1.003,0.681,1.493c0.092,0.185,0.195,0.364,0.292,0.547c0.253,0.478,0.51,0.953,0.79,1.416
			c0.111,0.184,0.233,0.36,0.349,0.541c0.288,0.451,0.578,0.898,0.892,1.332c0.13,0.179,0.271,0.35,0.405,0.527
			c0.321,0.422,0.644,0.842,0.99,1.246c0.146,0.17,0.303,0.33,0.453,0.497c0.357,0.397,0.715,0.792,1.096,1.169
			c0.148,0.147,0.308,0.283,0.46,0.426c0.404,0.381,0.809,0.761,1.238,1.119c0.129,0.108,0.268,0.206,0.4,0.312
			c0.471,0.379,0.947,0.753,1.447,1.103c0.067,0.047,0.138,0.087,0.205,0.134c1.166,0.802,2.395,1.535,3.703,2.162l23.93,11.392
			l13.505,6.436c11.763,5.962,23.577,11.06,35.421,15.305c42.672,15.301,85.737,19.445,128.214,12.389
			c27.686-4.595,55.122-13.94,82.036-28.061l30.752-14.642l5.871-2.792c0.097-0.046,0.185-0.103,0.281-0.15
			c6.427-3.116,11.17-8.524,13.597-14.88c0.001-0.003,0.002-0.005,0.003-0.008c0.263-0.69,0.498-1.389,0.706-2.099
			c0.023-0.078,0.042-0.157,0.064-0.236c0.181-0.639,0.341-1.283,0.476-1.935c0.028-0.134,0.049-0.269,0.075-0.404
			c0.115-0.605,0.214-1.213,0.289-1.826c0.021-0.17,0.035-0.34,0.052-0.51c0.06-0.588,0.106-1.177,0.128-1.771
			c0.007-0.188,0.008-0.377,0.011-0.565c0.01-0.583,0.005-1.168-0.023-1.755c-0.009-0.194-0.024-0.388-0.037-0.582
			c-0.04-0.587-0.097-1.175-0.175-1.763c-0.026-0.192-0.056-0.383-0.086-0.575c-0.051-0.329-0.084-0.657-0.147-0.986
			c19.26-6.025,28.862-8.081,35.751-7.795C470.15,211.437,469.333,210.442,469.333,219.97z"/>
	</g>
</g>
<g>
</g>
<g>
</g>
<g>
</g>
<g>
</g>
<g>
</g>
<g>
</g>
<g>
</g>
<g>
</g>
<g>
</g>
<g>
</g>
<g>
</g>
<g>
</g>
<g>
</g>
<g>
</g>
<g>
</g>
</svg>
